<svg width="512" height="512" viewBox="0 0 512 512" fill="none" xmlns="http://www.w3.org/2000/svg">
<path d="M402.25 22H109.75C61.287 22 22 61.287 22 109.75V402.25C22 450.713 61.287 490 109.75 490H402.25C450.713 490 490 450.713 490 402.25V109.75C490 61.287 450.713 22 402.25 22Z" fill="#25292B"/>
<path d="M311.527 393.109C311.057 391.573 310.35 389.796 310.021 389.292C309.797 388.944 308.692 387.371 308.692 387.143L312.35 390.192C312.786 389.964 312.562 389.964 312.562 389.736C312.456 389.292 311.233 387.023 310.904 386.459C309.021 383.074 306.033 380.242 303.033 377.757L303.151 377.529C304.809 377.637 306.363 376.509 307.915 377.3C307.021 375.152 304.809 373.567 302.809 372.331L302.927 371.983C303.48 372.331 306.809 372.439 307.021 372.103C307.139 371.983 307.139 371.767 307.021 371.539C306.915 371.191 304.703 369.618 304.139 369.162C302.034 367.121 300.151 364.865 298.492 362.38L300.704 363.617C301.163 363.772 302.586 364.528 303.339 364.528C303.68 364.528 303.88 364.384 303.81 363.965C303.81 363.617 299.939 359.775 299.598 358.875C300.374 358.875 301.045 359.667 301.822 359.884C302.151 360.003 303.033 360.004 302.927 359.547C299.598 355.478 298.492 350.281 296.281 345.647C296.387 345.419 296.61 345.647 296.61 345.755C297.387 346.211 298.045 346.775 298.822 346.655C299.045 346.547 298.269 344.963 298.163 344.735C297.493 342.25 297.833 339.874 297.493 337.389C297.387 336.704 296.94 335.912 296.94 335.132C297.163 334.904 297.939 335.696 298.163 335.912C298.716 336.261 299.375 336.704 299.939 336.704C300.159 336.785 300.269 336.748 300.269 336.596L297.939 329.25L298.492 329.13C298.598 328.458 297.716 325.061 297.493 324.161C297.387 323.825 296.61 322.348 296.61 322.012L298.386 324.041L298.822 323.14C298.822 320.884 298.386 318.615 297.387 316.586C297.057 315.903 296.387 315.11 296.387 314.546C296.834 315.11 298.492 315.903 298.269 314.666C298.163 314.318 296.716 312.625 296.387 312.061C294.281 308.328 294.281 303.574 292.175 299.734C291.952 299.397 290.74 297.813 290.622 297.585C290.622 297.513 290.661 297.477 290.74 297.477C291.293 297.921 294.728 298.269 294.728 297.357C293.622 296.336 292.399 295.664 291.293 294.764C288.74 292.495 284.976 287.97 283.752 284.813C281.317 279.039 280.435 266.94 281.87 260.842C283.094 255.753 285.081 252.92 283.529 247.386C282.541 243.761 280.988 239.464 277.105 238.455C276.329 238.335 274.776 238.335 274.223 238C273.671 237.435 271.894 233.474 271.341 232.574C269.459 229.404 266.471 226.008 263.694 223.643C263.435 223.367 262.765 223.031 262.494 222.791C262.366 222.694 262.295 222.55 262.224 222.406C262.001 221.914 261.895 220.954 261.707 220.474C261.06 218.974 259.742 218.638 258.989 218.181C258.695 218.013 258.507 217.702 258.436 217.365C258.424 217.257 258.401 217.149 258.377 217.029C258.271 216.645 257.977 216.333 257.612 216.213C256.824 215.949 255.46 215.721 254.836 215.721C248.742 215.264 245.413 219.345 244.19 224.879C243.308 228.721 244.19 231.325 244.307 234.95C244.307 240.376 243.308 246.594 242.084 251.899C241.425 254.624 240.755 256.317 238.767 258.345C234.108 263.326 228.461 261.742 225.579 269.437C224.25 272.942 223.25 277.575 221.368 280.852C221.038 281.308 219.038 283.673 219.486 284.021C219.591 284.021 220.591 283.793 220.474 284.249C220.368 284.585 220.039 285.041 219.815 285.605C219.591 286.277 218.591 289.327 218.591 289.782C218.591 290.119 218.815 290.347 218.815 290.911C218.709 291.595 217.604 293.852 218.262 293.972L218.815 293.852C219.038 294.2 217.815 298.041 217.604 298.713C217.156 300.754 216.933 302.674 216.05 304.595C215.709 305.159 214.168 306.972 214.603 307.536C215.38 307.992 216.156 307.644 216.827 307.428C217.156 307.307 217.156 307.08 217.156 307.428C213.944 311.269 211.944 315.903 209.286 319.971C208.956 320.428 207.18 322.576 207.18 323.032C207.404 323.14 208.404 322.804 208.18 323.249C208.063 323.597 206.181 324.953 206.075 325.181C205.957 325.517 206.075 325.625 206.181 325.853H206.733C207.074 326.189 206.627 326.082 206.521 326.31C202.863 329.815 199.534 334.676 196.428 338.637C195.875 339.417 194.663 340.437 194.217 341.122C194.111 341.35 193.887 341.566 193.993 341.914L194.663 342.358V342.707C194.217 342.587 193.44 343.498 193.663 343.715H196.099C196.981 343.715 198.875 344.507 199.863 344.735C203.298 345.419 205.957 345.071 209.286 345.299C211.944 345.419 214.38 346.211 216.827 346.655C216.485 347.448 216.05 348.24 215.709 349.032C215.498 349.596 214.603 352.429 214.721 352.766C215.156 354.121 216.827 350.508 217.604 350.845C216.933 351.517 215.274 356.378 215.274 356.954C215.38 357.291 215.827 357.171 216.05 356.954C216.603 356.606 217.156 354.686 218.039 354.23C217.933 354.914 217.486 355.598 217.156 356.27C216.933 356.954 216.827 357.734 216.485 358.419C216.262 358.983 214.933 360.46 216.603 360.003C217.156 359.884 217.604 359.439 218.039 359.211C218.156 359.319 217.604 360.904 217.486 361.252C217.156 362.032 216.379 362.716 216.603 363.617C214.603 365.321 211.944 366.33 210.286 368.478C210.062 368.706 208.956 370.411 209.18 370.746C209.509 370.746 210.616 369.954 210.616 370.746C209.509 370.974 208.404 372.331 207.733 373.339C206.298 375.38 205.18 377.757 203.522 379.677C202.969 380.133 200.981 381.142 202.521 381.49L203.969 381.598C200.934 384.802 200.122 389.412 197.804 393.109H108.41C97.1399 393.109 90.3756 380.337 96.5399 370.723L246.848 136.401C252.448 127.675 264.977 127.675 270.577 136.401L420.944 370.71C427.12 380.337 420.356 393.109 409.086 393.109H311.527Z" fill="#FF3333"/>
</svg>
