<svg width="64" height="64" viewBox="0 0 64 64" fill="none" xmlns="http://www.w3.org/2000/svg">
<path d="M52 0H12C5.37258 0 0 5.37258 0 12V52C0 58.6274 5.37258 64 12 64H52C58.6274 64 64 58.6274 64 52V12C64 5.37258 58.6274 0 52 0Z" fill="#25292B"/>
<path d="M39.5934 50.75C39.5291 50.5399 39.4325 50.2969 39.3875 50.228C39.3569 50.1804 39.2057 49.9653 39.2057 49.9341L39.706 50.3511C39.7656 50.3199 39.735 50.3199 39.735 50.2887C39.7205 50.228 39.5532 49.9177 39.5082 49.8406C39.2508 49.3777 38.8421 48.9903 38.4319 48.6505L38.448 48.6193C38.6748 48.6341 38.8872 48.4798 39.0995 48.5881C38.9773 48.2943 38.6748 48.0776 38.4013 47.9085L38.4174 47.8609C38.493 47.9085 38.9483 47.9233 38.9773 47.8773C38.9934 47.8609 38.9934 47.8314 38.9773 47.8002C38.9628 47.7526 38.6603 47.5375 38.5831 47.4752C38.2952 47.1961 38.0378 46.8875 37.8109 46.5477L38.1134 46.7168C38.1761 46.7381 38.3708 46.8415 38.4737 46.8415C38.5204 46.8415 38.5477 46.8218 38.5381 46.7644C38.5381 46.7168 38.0088 46.1915 37.9621 46.0684C38.0683 46.0684 38.16 46.1767 38.2662 46.2063C38.3112 46.2227 38.4319 46.2227 38.4174 46.1603C37.9621 45.6038 37.8109 44.8931 37.5085 44.2594C37.523 44.2282 37.5535 44.2594 37.5535 44.2742C37.6597 44.3366 37.7498 44.4137 37.856 44.3973C37.8865 44.3825 37.7804 44.1659 37.7659 44.1347C37.6742 43.7949 37.7208 43.4699 37.6742 43.1301C37.6597 43.0365 37.5986 42.9282 37.5986 42.8215C37.6291 42.7903 37.7353 42.8986 37.7659 42.9282C37.8415 42.9758 37.9316 43.0365 38.0088 43.0365C38.0388 43.0475 38.0539 43.0425 38.0539 43.0217L37.7353 42.0171L37.8109 42.0007C37.8254 41.9088 37.7048 41.4442 37.6742 41.3211C37.6597 41.2752 37.5535 41.0733 37.5535 41.0273L37.7964 41.3047L37.856 41.1816C37.856 40.873 37.7964 40.5627 37.6597 40.2853C37.6147 40.1918 37.523 40.0834 37.523 40.0063C37.5841 40.0834 37.8109 40.1918 37.7804 40.0227C37.7659 39.9751 37.568 39.7436 37.523 39.6665C37.235 39.156 37.235 38.5059 36.947 37.9807C36.9165 37.9347 36.7508 37.718 36.7347 37.6868C36.7347 37.677 36.74 37.672 36.7508 37.672C36.8264 37.7328 37.2961 37.7804 37.2961 37.6556C37.1449 37.5161 36.9776 37.4242 36.8264 37.3011C36.4773 36.9908 35.9625 36.372 35.7952 35.9403C35.4621 35.1507 35.3415 33.496 35.5378 32.6622C35.7051 31.9662 35.9769 31.5788 35.7646 30.822C35.6295 30.3263 35.4171 29.7386 34.8862 29.6007C34.78 29.5843 34.5677 29.5843 34.4921 29.5384C34.4165 29.4612 34.1735 28.9195 34.0979 28.7964C33.8405 28.363 33.4319 27.8985 33.0522 27.5751C33.0168 27.5374 32.9251 27.4914 32.8881 27.4586C32.8705 27.4454 32.8608 27.4257 32.8511 27.406C32.8206 27.3387 32.8061 27.2074 32.7804 27.1417C32.6919 26.9366 32.5117 26.8906 32.4087 26.8282C32.3685 26.8052 32.3428 26.7626 32.3331 26.7166C32.3315 26.7018 32.3283 26.6871 32.3251 26.6706C32.3106 26.6181 32.2704 26.5754 32.2205 26.559C32.1127 26.5229 31.9261 26.4917 31.8408 26.4917C31.0075 26.4293 30.5522 26.9874 30.3849 27.7442C30.2643 28.2695 30.3849 28.6257 30.401 29.1214C30.401 29.8634 30.2643 30.7137 30.097 31.4392C30.0069 31.8118 29.9152 32.0433 29.6433 32.3207C29.0062 33.0019 28.234 32.7853 27.8399 33.8375C27.6581 34.3168 27.5214 34.9504 27.264 35.3986C27.2189 35.4609 26.9454 35.7843 27.0066 35.8319C27.021 35.8319 27.1578 35.8007 27.1417 35.8631C27.1272 35.9091 27.0822 35.9714 27.0516 36.0486C27.021 36.1405 26.8843 36.5575 26.8843 36.6198C26.8843 36.6658 26.9149 36.697 26.9149 36.7741C26.9004 36.8677 26.7492 37.1763 26.8392 37.1927L26.9149 37.1763C26.9454 37.2239 26.7781 37.7492 26.7492 37.8411C26.688 38.1202 26.6575 38.3828 26.5368 38.6455C26.4901 38.7226 26.2794 38.9705 26.3389 39.0476C26.4451 39.11 26.5513 39.0624 26.643 39.0329C26.688 39.0164 26.688 38.9853 26.688 39.0329C26.2488 39.5581 25.9753 40.1918 25.6118 40.7482C25.5667 40.8106 25.3238 41.1044 25.3238 41.1668C25.3544 41.1816 25.4911 41.1356 25.4605 41.1964C25.4445 41.244 25.1871 41.4295 25.1726 41.4607C25.1565 41.5066 25.1726 41.5214 25.1871 41.5526H25.2627C25.3093 41.5985 25.2482 41.5838 25.2337 41.615C24.7334 42.0943 24.2781 42.7591 23.8534 43.3008C23.7778 43.4075 23.6121 43.547 23.551 43.6406C23.5365 43.6718 23.5059 43.7013 23.5204 43.7489L23.6121 43.8097V43.8573C23.551 43.8409 23.4448 43.9656 23.4753 43.9952H23.8084C23.929 43.9952 24.188 44.1035 24.3232 44.1347C24.7929 44.2282 25.1565 44.1806 25.6118 44.2118C25.9753 44.2282 26.3084 44.3366 26.643 44.3973C26.5963 44.5057 26.5368 44.614 26.4901 44.7223C26.4612 44.7995 26.3389 45.1869 26.355 45.2329C26.4145 45.4183 26.643 44.9242 26.7492 44.9702C26.6575 45.0621 26.4306 45.7269 26.4306 45.8057C26.4451 45.8517 26.5062 45.8353 26.5368 45.8057C26.6124 45.7581 26.688 45.4955 26.8087 45.4331C26.7942 45.5267 26.7331 45.6202 26.688 45.7122C26.6575 45.8057 26.643 45.9124 26.5963 46.006C26.5658 46.0832 26.384 46.2851 26.6124 46.2227C26.688 46.2063 26.7492 46.1455 26.8087 46.1143C26.8248 46.1291 26.7492 46.3458 26.7331 46.3934C26.688 46.5001 26.5818 46.5937 26.6124 46.7168C26.3389 46.9499 25.9753 47.0878 25.7485 47.3816C25.7179 47.4128 25.5667 47.6459 25.5973 47.6918C25.6423 47.6918 25.7936 47.5835 25.7936 47.6918C25.6423 47.723 25.4911 47.9085 25.3994 48.0464C25.2031 48.3255 25.0503 48.6505 24.8235 48.9131C24.7479 48.9755 24.476 49.1134 24.6867 49.161L24.8846 49.1758C24.4696 49.614 24.3585 50.2444 24.0416 50.75H11.8167C10.2755 50.75 9.3505 49.0034 10.1935 47.6886L30.7485 15.6446C31.5143 14.4512 33.2276 14.4512 33.9934 15.6446L54.5564 47.6869C55.401 49.0034 54.476 50.75 52.9348 50.75H39.5934Z" fill="#FF3333"/>
</svg>
